name 900006_13ik_lsw.mot
datacolumns 165
datarows 4
range 0.13333333 0.15833333
cursor 1.0 1.0 0.0
keys m_key
wrap
enforce_loops no
enforce_constraints no
calc_derivatives 0.008333
event_color 1.000000 0.000000 1.000000
endheader

                time	          calcn_r_tx	          calcn_r_ty	          calcn_r_tz	          calcn_r_r1	          calcn_r_r2	          calcn_r_r3	          calcn_l_tx	          calcn_l_ty	          calcn_l_tz	          calcn_l_r1	          calcn_l_r2	          calcn_l_r3	           pelvis_tz	           pelvis_tx	           pelvis_ty	         pelvis_tilt	         pelvis_list	     pelvis_rotation	       hip_flexion_r	     hip_adduction_r	      hip_rotation_r	        knee_angle_r	       ankle_angle_r	    subtalar_angle_r	         mtp_angle_r	       hip_flexion_l	     hip_adduction_l	      hip_rotation_l	        knee_angle_l	       ankle_angle_l	    subtalar_angle_l	         mtp_angle_l	    lumbar_extension	      lumbar_bending	     lumbar_rotation	     ground_force_px	     ground_force_py	     ground_force_pz	     ground_force_vx	     ground_force_vy	     ground_force_vz	     ground_force_px	     ground_force_py	     ground_force_pz	     ground_force_vx	     ground_force_vy	     ground_force_vz	     ground_torque_x	     ground_torque_y	     ground_torque_z	     ground_torque_x	     ground_torque_y	     ground_torque_z	           midhip_px	           midhip_py	           midhip_pz	            hip_r_px	            hip_r_py	            hip_r_pz	            hip_l_px	            hip_l_py	            hip_l_pz	           knee_r_px	           knee_r_py	           knee_r_pz	           knee_l_px	           knee_l_py	           knee_l_pz	          ankle_r_px	          ankle_r_py	          ankle_r_pz	          ankle_l_px	          ankle_l_py	          ankle_l_pz	          midasis_px	          midasis_py	          midasis_pz	           asis_r_px	           asis_r_py	           asis_r_pz	           asis_l_px	           asis_l_py	           asis_l_pz	           psis_r_px	           psis_r_py	           psis_r_pz	           psis_l_px	           psis_l_py	           psis_l_pz	     epicondLat_r_px	     epicondLat_r_py	     epicondLat_r_pz	     epicondLat_l_px	     epicondLat_l_py	     epicondLat_l_pz	     epicondMed_r_px	     epicondMed_r_py	     epicondMed_r_pz	     epicondMed_l_px	     epicondMed_l_py	     epicondMed_l_pz	   malleolusLat_r_px	   malleolusLat_r_py	   malleolusLat_r_pz	   malleolusLat_l_px	   malleolusLat_l_py	   malleolusLat_l_pz	  malleolusMedv_r_px	  malleolusMedv_r_py	  malleolusMedv_r_pz	  malleolusMedv_l_px	  malleolusMedv_l_py	  malleolusMedv_l_pz	     sternalnotch_px	     sternalnotch_py	     sternalnotch_pz	   xyphoidprocess_px	   xyphoidprocess_py	   xyphoidprocess_pz	             neck_px	             neck_py	             neck_pz	            toe_r_px	            toe_r_py	            toe_r_pz	            toe_l_px	            toe_l_py	            toe_l_pz	      thighwand_r_px	      thighwand_r_py	      thighwand_r_pz	      thighwand_l_px	      thighwand_l_py	      thighwand_l_pz	      upperleg1_r_px	      upperleg1_r_py	      upperleg1_r_pz	      upperleg1_l_px	      upperleg1_l_py	      upperleg1_l_pz	      upperleg2_r_px	      upperleg2_r_py	      upperleg2_r_pz	      upperleg2_l_px	      upperleg2_l_py	      upperleg2_l_pz	      shankwand_r_px	      shankwand_r_py	      shankwand_r_pz	      shankwand_l_px	      shankwand_l_py	      shankwand_l_pz	      lowerleg1_r_px	      lowerleg1_r_py	      lowerleg1_r_pz	      lowerleg1_l_px	      lowerleg1_l_py	      lowerleg1_l_pz	    subclavicle_r_px	    subclavicle_r_py	    subclavicle_r_pz	    subclavicle_l_px	    subclavicle_l_py	    subclavicle_l_pz	
          0.13333333	          0.99117320	          0.17683007	         -0.22407177	          1.59250187	         -6.36408570	        -60.36560960	          1.43071483	          0.03601075	         -0.32682954	         -3.43786840	         -4.50593582	          1.03327097	         -0.28235756	          1.39867087	          0.81312549	          2.84053641	          2.24832514	         -0.21008536	         -6.36737262	         -2.63282359	         -6.60926222	        -45.67043234	        -11.65038263	          0.00000000	          0.00000000	         19.43325710	          6.90432781	          2.08927552	        -20.33389506	         -0.80799321	          0.00000000	          0.00000000	         -4.67000172	         -2.03062473	         -0.20496395	          1.83761768	          0.00000000	         -0.23823407	          0.00000000	          0.00000000	          0.00000000	          1.48538306	          0.00000000	         -0.32594220	        -59.40686449	        459.46925765	         15.10061534	          0.00000000	          0.00000000	          0.00000000	          0.00000000	         -0.52178813	          0.00000000	          1.36306220	          0.75176980	         -0.28883373	          1.35619993	          0.74587057	         -0.23212440	          1.36992492	          0.75766964	         -0.34554364	          1.29614430	          0.39992663	         -0.20744247	          1.44716631	          0.41996265	         -0.33024731	          1.04087215	          0.15398275	         -0.22384874	          1.47513872	          0.06586784	         -0.32373072	          1.39712949	          0.82385272	         -0.27770746	          1.39904624	          0.81864053	         -0.16610093	          1.39521298	          0.82906511	         -0.38931376	          1.22192280	          0.85065844	         -0.24526012	          1.21954080	          0.84987761	         -0.29918483	          1.30393470	          0.39442008	         -0.14807108	          1.46395937	          0.41573179	         -0.38942483	          1.32228304	          0.39205194	         -0.27271890	          1.45010422	          0.41813199	         -0.27304458	          1.03362792	          0.15914515	         -0.18742296	          1.47053489	          0.06467353	         -0.35992002	          1.03954076	          0.14758533	         -0.25676276	          1.46857134	          0.06609430	         -0.29060593	          1.38668707	          1.17531951	         -0.30374503	          1.39563508	          1.07359386	         -0.30750688	          1.27827848	          1.24529652	         -0.29390608	          1.06925845	          0.07113338	         -0.21984521	          1.56642960	          0.04744954	         -0.32254374	          1.45352708	          0.52973677	         -0.17061297	          1.51995495	          0.59139613	         -0.40011111	          1.39864481	          0.57109046	         -0.14463137	          1.47671966	          0.62830628	         -0.34044416	          1.38376766	          0.51365343	         -0.14862012	          1.48608043	          0.57165124	         -0.33067248	          1.20671287	          0.14652265	         -0.18222096	          1.46953405	          0.16477835	         -0.45112773	          1.14213563	          0.19175658	         -0.20699836	          1.46528686	          0.15799066	         -0.37171147	          1.39031550	          1.17498771	         -0.24790475	          1.38881305	          1.17615058	         -0.35350442	
          0.14166667	          1.00728720	          0.18187430	         -0.22354621	          1.75022470	         -6.56549028	        -62.28733073	          1.43099899	          0.03589821	         -0.32717446	         -3.50325067	         -4.20183972	          0.93849406	         -0.28349133	          1.40748790	          0.81465928	          2.96533961	          2.16405016	          0.03820477	         -5.15812365	         -2.81323340	         -6.96050118	        -47.58062090	        -13.08594023	          0.00000000	          0.00000000	         18.69491355	          6.86176912	          1.97573575	        -20.55797489	         -0.08032165	          0.00000000	          0.00000000	         -4.88375271	         -2.22468124	         -0.03006794	          1.84025928	          0.00000000	         -0.23832747	          0.00000000	          0.00000000	          0.00000000	          1.48633203	          0.00000000	         -0.32627539	        -56.21416632	        459.29573982	         18.01295884	          0.00000000	          0.00000000	          0.00000000	          0.00000000	         -0.53376685	          0.00000000	          1.37258489	          0.75300148	         -0.28978326	          1.36580186	          0.74710069	         -0.23306411	          1.37936826	          0.75890284	         -0.34650296	          1.31355917	          0.39974463	         -0.20704995	          1.45249409	          0.42047543	         -0.33164836	          1.05707521	          0.15762353	         -0.22379293	          1.47538961	          0.06577907	         -0.32397342	          1.40657541	          0.82518439	         -0.27875758	          1.40864463	          0.81999251	         -0.16721106	          1.40450652	          0.83037633	         -0.39030384	          1.23143435	          0.85161796	         -0.24544398	          1.22910616	          0.85090221	         -0.29924603	          1.32148021	          0.39472783	         -0.14766459	          1.46950453	          0.41583726	         -0.39065362	          1.34041671	          0.39284069	         -0.27325484	          1.45571954	          0.41870787	         -0.27516097	          1.04946253	          0.16329671	         -0.18751996	          1.47069009	          0.06455736	         -0.36014939	          1.05558928	          0.14998269	         -0.25646342	          1.46868697	          0.06643476	         -0.29084623	          1.39600805	          1.17649109	         -0.30462815	          1.40474522	          1.07473653	         -0.30808372	          1.28777065	          1.24671323	         -0.29479766	          1.08220368	          0.07377394	         -0.21901304	          1.56647666	          0.04727826	         -0.32280330	          1.46816845	          0.53286602	         -0.16961902	          1.52764405	          0.59097876	         -0.40183926	          1.41180389	          0.57279729	         -0.14377940	          1.48532108	          0.62840470	         -0.34270746	          1.39824737	          0.51521782	         -0.14812634	          1.49386403	          0.57169712	         -0.33292083	          1.22189100	          0.14833421	         -0.18010847	          1.47107768	          0.16423244	         -0.45160731	          1.15797383	          0.19406194	         -0.20675875	          1.46669742	          0.15784835	         -0.37252769	          1.39988278	          1.17634253	         -0.24893843	          1.39791606	          1.17714832	         -0.35426476	
          0.15000000	          1.02395743	          0.18597826	         -0.22273005	          1.74696821	         -6.70774507	        -63.47506990	          1.43080865	          0.03577496	         -0.32716008	         -3.62104268	         -3.90647213	          0.70892235	         -0.28481600	          1.41690870	          0.81598937	          2.94961027	          2.07355406	          0.21575731	         -3.79996345	         -3.03652801	         -7.17524321	        -49.39449515	        -13.86016401	          0.00000000	          0.00000000	         18.00737589	          6.83564975	          1.80707338	        -20.73997799	          0.56854191	          0.00000000	          0.00000000	         -5.06874181	         -2.32843642	          0.10432783	          1.84345728	          0.00000000	         -0.23853415	          0.00000000	          0.00000000	          0.00000000	          1.48742224	          0.00000000	         -0.32649039	        -52.74352855	        457.30937132	         20.05762370	          0.00000000	          0.00000000	          0.00000000	          0.00000000	         -0.52800954	          0.00000000	          1.38200586	          0.75424946	         -0.29068038	          1.37525423	          0.74837341	         -0.23395442	          1.38875773	          0.76012600	         -0.34740676	          1.33150801	          0.39954477	         -0.20674936	          1.45726642	          0.42096008	         -0.33283144	          1.07390307	          0.16081697	         -0.22381125	          1.47562461	          0.06569838	         -0.32416948	          1.41591845	          0.82653139	         -0.27974046	          1.41805401	          0.82141761	         -0.16825337	          1.41378334	          0.83164508	         -0.39122731	          1.24082776	          0.85263452	         -0.24577381	          1.23857144	          0.85199249	         -0.29949189	          1.33907127	          0.39538762	         -0.14734830	          1.47467452	          0.41588588	         -0.39170903	          1.35889707	          0.39368678	         -0.27351885	          1.46094329	          0.41908155	         -0.27722118	          1.06596310	          0.16692234	         -0.18767644	          1.47079186	          0.06446163	         -0.36032684	          1.07239813	          0.15234648	         -0.25632358	          1.46886828	          0.06666883	         -0.29102673	          1.40526132	          1.17767606	         -0.30533474	          1.41376378	          1.07589358	         -0.30854300	          1.29716058	          1.24819324	         -0.29555665	          1.09691321	          0.07641725	         -0.21784914	          1.56648686	          0.04711688	         -0.32299855	          1.48263101	          0.53628641	         -0.16877909	          1.53498595	          0.59034356	         -0.40350515	          1.42474610	          0.57471963	         -0.14295740	          1.49362537	          0.62835272	         -0.34473819	          1.41277578	          0.51711844	         -0.14757906	          1.50131697	          0.57147487	         -0.33498873	          1.23788000	          0.15020814	         -0.17831838	          1.47237628	          0.16373625	         -0.45200122	          1.17459014	          0.19642529	         -0.20652309	          1.46799540	          0.15767241	         -0.37315182	          1.40932457	          1.17767130	         -0.24974013	          1.40700272	          1.17819324	         -0.35489752	
          0.15833333	          1.04198316	          0.18919654	         -0.22307262	          1.61485529	         -7.17847353	        -64.23386314	          1.43102980	          0.03554367	         -0.32672411	         -3.73489357	         -3.74342530	          0.87127132	         -0.28604499	          1.42633530	          0.81751421	          3.03955691	          2.01268066	          0.20461734	         -2.40272712	         -3.40410123	         -7.52820662	        -51.19681795	        -14.35996918	          0.00000000	          0.00000000	         17.16606469	          6.84027968	          1.51179619	        -20.82237652	          1.58484561	          0.00000000	          0.00000000	         -5.30990656	         -2.39514347	          0.26653305	          1.84709766	          0.00000000	         -0.23883440	          0.00000000	          0.00000000	          0.00000000	          1.48862476	          0.00000000	         -0.32656656	        -49.13596433	        453.30426816	         20.81486118	          0.00000000	          0.00000000	          0.00000000	          0.00000000	         -0.49876316	          0.00000000	          1.39133620	          0.75552045	         -0.29152058	          1.38457135	          0.74969674	         -0.23479040	          1.39810119	          0.76134447	         -0.34825099	          1.34995252	          0.39938363	         -0.20653319	          1.46149834	          0.42141908	         -0.33378339	          1.09134161	          0.16353210	         -0.22389704	          1.47584160	          0.06562436	         -0.32431608	          1.42516468	          0.82789870	         -0.28065721	          1.42728551	          0.82292232	         -0.16922578	          1.42304437	          0.83287488	         -0.39208846	          1.25011015	          0.85370936	         -0.24624816	          1.24794596	          0.85314564	         -0.29991818	          1.35670170	          0.39639566	         -0.14711740	          1.47948515	          0.41588193	         -0.39257743	          1.37768940	          0.39462937	         -0.27356504	          1.46577762	          0.41930205	         -0.27911618	          1.08310999	          0.16999437	         -0.18788667	          1.47084747	          0.06438602	         -0.36045090	          1.08997141	          0.15464963	         -0.25633845	          1.46910492	          0.06680482	         -0.29114755	          1.41444449	          1.17888561	         -0.30586279	          1.42269295	          1.07707642	         -0.30887966	          1.30646188	          1.24973100	         -0.29617682	          1.11333444	          0.07901100	         -0.21639140	          1.56646183	          0.04695965	         -0.32312371	          1.49692877	          0.53998991	         -0.16811864	          1.54199112	          0.58951069	         -0.40507515	          1.43755061	          0.57686422	         -0.14220876	          1.50163536	          0.62817261	         -0.34649940	          1.42739289	          0.51935345	         -0.14702611	          1.50844122	          0.57101419	         -0.33681910	          1.25466868	          0.15213000	         -0.17682533	          1.47346238	          0.16329262	         -0.45231042	          1.19198342	          0.19879951	         -0.20625450	          1.46919289	          0.15748333	         -0.37358475	          1.41864444	          1.17898771	         -0.25030533	          1.41606529	          1.17929451	         -0.35540388	
